HIERARCHY
ROOT Hips
{
	OFFSET 0.000000 0.000000 0.000000 
	CHANNELS 6 Xposition Yposition Zposition Zrotation Yrotation Xrotation
	JOINT LeftUpLeg
	{
		OFFSET 1.363060 -1.794630 0.839290 
		CHANNELS 3 Zrotation Yrotation Xrotation
		JOINT LeftLeg
		{
			OFFSET 2.448110 -6.726130 0.000000 
			CHANNELS 3 Zrotation Yrotation Xrotation
			JOINT LeftFoot
			{
				OFFSET 2.562200 -7.039590 0.000000 
				CHANNELS 3 Zrotation Yrotation Xrotation
				JOINT LeftToeBase
				{
					OFFSET 0.157640 -0.433110 2.322550 
					CHANNELS 3 Zrotation Yrotation Xrotation
					End Site
					{
						OFFSET 0.000000 0.000000 0.000000 
					}
				}
			}
		}
	}
	JOINT RightUpLeg
	{
		OFFSET -1.305520 -1.794630 0.839290 
		CHANNELS 3 Zrotation Yrotation Xrotation
		JOINT RightLeg
		{
			OFFSET -2.542530 -6.985550 0.000000 
			CHANNELS 3 Zrotation Yrotation Xrotation
			JOINT RightFoot
			{
				OFFSET -2.568260 -7.056230 0.000000 
				CHANNELS 3 Zrotation Yrotation Xrotation
				JOINT RightToeBase
				{
					OFFSET -0.164730 -0.452590 2.363150 
					CHANNELS 3 Zrotation Yrotation Xrotation
					End Site
					{
						OFFSET 0.000000 0.000000 0.000000 
					}
				}
			}
		}
	}
	JOINT Spine
	{
		OFFSET 0.028270 2.035590 -0.193380 
		CHANNELS 3 Zrotation Yrotation Xrotation
		JOINT Spine1
		{
			OFFSET 0.056720 2.048850 -0.042750 
			CHANNELS 3 Zrotation Yrotation Xrotation
			JOINT Neck1
			{
				OFFSET -0.054170 1.746240 0.172020 
				CHANNELS 3 Zrotation Yrotation Xrotation
				JOINT Head
				{
					OFFSET 0.104070 1.761360 -0.123970 
					CHANNELS 3 Zrotation Yrotation Xrotation
					End Site
					{
						OFFSET 0.000000 0.000000 0.000000 
					}
				}
			}
			JOINT LeftArm
			{
				OFFSET 3.362410 1.200890 -0.311210 
				CHANNELS 3 Zrotation Yrotation Xrotation
				JOINT LeftForeArm
				{
					OFFSET 4.983000 -0.000000 -0.000000 
					CHANNELS 3 Zrotation Yrotation Xrotation
					JOINT LeftHand
					{
						OFFSET 3.483560 -0.000000 -0.000000 
						CHANNELS 3 Zrotation Yrotation Xrotation
						JOINT LeftHandIndex1
						{
							OFFSET 0.715260 -0.000000 -0.000000 
							CHANNELS 3 Zrotation Yrotation Xrotation
							End Site
							{
								OFFSET 0.000000 0.000000 0.000000 
							}
						}
					}
				}
			}
			JOINT RightArm
			{
				OFFSET -3.136600 1.374050 -0.404650 
				CHANNELS 3 Zrotation Yrotation Xrotation
				JOINT RightForeArm
				{
					OFFSET -5.241900 -0.000000 -0.000000 
					CHANNELS 3 Zrotation Yrotation Xrotation
					JOINT RightHand
					{
						OFFSET -3.444170 -0.000000 -0.000000 
						CHANNELS 3 Zrotation Yrotation Xrotation
						JOINT RightHandIndex1
						{
							OFFSET -0.622530 -0.000000 -0.000000 
							CHANNELS 3 Zrotation Yrotation Xrotation
							End Site
							{
								OFFSET 0.000000 0.000000 0.000000 
							}
						}
					}
				}
			}
		}
	}
}
MOTION
Frames: 9
Frame Time: 0.041667
0.042976 17.838356 -29.665599 -1.555325 3.091106 3.136572 -8.454096 -3.143550 -9.659919 0.563585 9.048886 23.543640 -4.195782 16.915574 -2.199420 0.120100 -2.234400 -6.153800 16.407989 -1.576709 -13.750498 -1.667739 -10.324412 27.744010 3.376072 -15.176828 -7.962841 -0.004000 -0.409300 1.124700 2.533409 -1.067902 -2.463799 2.705158 -0.479554 -3.143539 -0.504311 0.365697 10.373956 -4.102400 0.295800 9.149300 -90.774897 4.511954 21.482538 14.695879 -23.375879 -2.792402 0.289555 0.386468 -5.638483 -7.125000 0.000000 0.000000 86.260151 -5.472285 4.229917 -13.114823 21.763134 -2.490240 0.035546 -0.487696 -1.791856 7.125000 0.000000 0.000000 
0.037007 17.837660 -29.654060 -1.569464 3.096073 3.129039 -8.445554 -3.234815 -9.585126 0.561050 9.048061 23.506177 -4.273571 17.189857 -2.131239 0.124400 -2.273800 -6.263000 16.457613 -1.580397 -13.664636 -1.663092 -10.316280 27.721700 3.380323 -15.199896 -8.064394 -0.004400 -0.428900 1.178400 2.569355 -1.023300 -1.481595 2.766027 -0.519651 -1.971684 0.024271 0.233282 11.327563 -3.874500 0.256000 10.204700 -90.672281 1.951274 21.721768 14.365376 -22.960057 -2.683206 0.294904 0.393297 -5.524592 -7.125000 0.000000 0.000000 86.234652 -3.095904 3.510642 -12.950367 21.565295 -2.443243 0.033648 -0.481447 -1.464890 7.125000 0.000000 0.000000 
0.034719 17.836963 -29.643813 -1.567441 2.963510 3.119445 -8.480272 -3.286699 -9.493381 0.560478 9.058556 23.509724 -4.342201 17.419014 -2.276311 0.119000 -2.224400 -6.126100 16.460113 -1.631117 -13.612325 -1.660249 -10.310119 27.704310 3.357068 -15.114321 -7.990764 -0.003500 -0.383400 1.053500 2.560291 -0.907561 -0.384839 2.732037 -0.528689 -0.637639 0.253048 0.018777 12.356804 -3.825900 0.172000 11.369500 -90.672778 -0.518725 21.788889 14.174699 -22.729635 -2.620002 0.292503 0.383981 -5.280314 -7.125000 0.000000 0.000000 86.248392 -0.428995 2.609758 -12.733523 21.292344 -2.379754 0.029554 -0.473150 -1.064637 7.125000 0.000000 0.000000 
0.033227 17.837461 -29.635556 -1.585713 2.784232 3.124999 -8.486870 -3.319917 -9.424865 0.564751 9.057967 23.511987 -4.413148 17.646678 -2.379582 0.116000 -2.195700 -6.046900 16.472964 -1.607566 -13.610214 -1.653605 -10.304942 27.680443 3.323865 -14.993536 -7.893171 -0.003300 -0.370800 1.018900 2.570501 -0.993452 -1.260390 2.738997 -0.520177 -1.573360 0.076171 0.188947 11.463996 -3.867000 0.244100 10.339600 -90.764082 1.843004 21.820090 14.374898 -22.978626 -2.688204 0.303236 0.379068 -5.126903 -7.125000 0.000000 0.000000 86.274080 -2.767595 3.434412 -13.006778 21.648668 -2.462813 0.031312 -0.480236 -1.556762 7.125000 0.000000 0.000000 
0.029944 17.837560 -29.626205 -1.612303 2.650440 3.133960 -8.474687 -3.355786 -9.365780 0.567874 9.063256 23.519386 -4.470380 17.832157 -2.473006 0.113300 -2.170000 -5.975800 16.510788 -1.576804 -13.576960 -1.648435 -10.299200 27.659685 3.307089 -14.934081 -7.851082 -0.003000 -0.354900 0.975100 2.586343 -1.002879 -1.212544 2.749242 -0.529444 -1.451052 0.121442 0.196556 11.525762 -3.846500 0.255500 10.372100 -90.791680 1.854809 21.896980 14.368712 -22.972133 -2.687425 0.308817 0.375536 -4.978226 -7.125000 0.000000 0.000000 86.278657 -2.751098 3.509737 -13.064096 21.728594 -2.481629 0.030165 -0.479987 -1.646976 7.125000 0.000000 0.000000 
0.026462 17.838058 -29.616953 -1.638640 2.517741 3.150224 -8.456684 -3.375171 -9.316712 0.570098 9.066355 23.524234 -4.514188 17.972032 -2.563823 0.110100 -2.139200 -5.890400 16.549315 -1.532526 -13.549171 -1.643737 -10.294093 27.641409 3.292588 -14.882697 -7.814151 -0.002800 -0.339900 0.934000 2.598284 -1.018246 -1.254139 2.757055 -0.536596 -1.435926 0.133216 0.204343 11.542767 -3.843100 0.268100 10.331300 -90.811534 2.069803 21.981548 14.384318 -22.992577 -2.694086 0.315083 0.371441 -4.836587 -7.125000 0.000000 0.000000 86.293457 -2.957232 3.675261 -13.154676 21.852150 -2.510765 0.029269 -0.480403 -1.791206 7.125000 0.000000 0.000000 
0.022781 17.838456 -29.607702 -1.653516 2.402031 3.172097 -8.443218 -3.382893 -9.274671 0.570231 9.065777 23.519826 -4.544446 18.067624 -2.638180 0.107300 -2.112300 -5.816100 16.576979 -1.486346 -13.525005 -1.639550 -10.289467 27.625021 3.281370 -14.842806 -7.789451 -0.002500 -0.325300 0.893700 2.616415 -1.048520 -1.327228 2.787397 -0.549417 -1.461113 0.132928 0.223889 11.563304 -3.841800 0.286000 10.278400 -90.841098 2.329378 22.052581 14.405578 -23.020977 -2.703037 0.321775 0.368598 -4.713236 -7.125000 0.000000 0.000000 86.289008 -3.234817 3.913859 -13.268230 22.005411 -2.547264 0.029180 -0.481319 -1.979498 7.125000 0.000000 0.000000 
0.019299 17.839052 -29.598649 -1.649139 2.307414 3.197739 -8.444365 -3.383352 -9.238430 0.567888 9.061976 23.505863 -4.561910 18.122780 -2.695249 0.105100 -2.090100 -5.754800 16.583588 -1.455174 -13.508672 -1.636638 -10.285883 27.613390 3.271180 -14.806499 -7.772681 -0.002300 -0.308800 0.848500 2.636669 -1.081963 -1.339362 2.836103 -0.567590 -1.423809 0.142444 0.235720 11.686391 -3.837700 0.301900 10.321700 -90.874687 2.407792 22.117761 14.416845 -23.038779 -2.709006 0.328253 0.367788 -4.620701 -7.125000 0.000000 0.000000 86.268350 -3.342339 4.126213 -13.376780 22.152843 -2.582681 0.029746 -0.482108 -2.168409 7.125000 0.000000 0.000000 
0.016514 17.839450 -29.589795 -1.634134 2.216309 3.219882 -8.455930 -3.373472 -9.200453 0.563638 9.055127 23.483034 -4.572961 18.158614 -2.741675 0.103500 -2.074000 -5.710300 16.575313 -1.438401 -13.495251 -1.634263 -10.283219 27.604630 3.258991 -14.762196 -7.752487 -0.002000 -0.289700 0.795900 2.654133 -1.111540 -1.352190 2.887798 -0.583747 -1.392313 0.153778 0.240009 11.814976 -3.833700 0.314800 10.368100 -90.909304 2.477939 22.170760 14.428642 -23.057828 -2.715486 0.335371 0.367432 -4.522076 -7.125000 0.000000 0.000000 86.246981 -3.445314 4.319594 -13.486646 22.301492 -2.618763 0.030854 -0.482966 -2.351286 7.125000 0.000000 0.000000 
